<svg width="719" height="719" viewBox="0 0 719 719" xmlns="http://www.w3.org/2000/svg">
<path d="M669.96 605.637C668.818 603.92 667.248 602.529 665.406 601.604L640.583 589.199C640.075 587.338 639.108 585.634 637.772 584.242L429.479 375.948L459.757 345.706C485.908 319.533 516.116 297.756 549.215 281.224L561.632 274.974C566.612 275.568 571.62 275.881 576.635 275.911C611.061 275.948 644.074 262.219 668.323 237.781L682.413 223.692C717.679 188.399 726.415 134.505 704.104 89.8778C701.173 84.0206 694.049 81.6486 688.191 84.5794C687.06 85.1457 686.025 85.89 685.129 86.7824L626.423 145.488C612.545 159.4 590.017 159.43 576.106 145.552C569.415 138.88 565.654 129.819 565.653 120.369C565.634 110.93 569.387 101.874 576.078 95.2147L634.784 36.5087C639.41 31.873 639.403 24.3628 634.766 19.736C633.872 18.8436 632.84 18.0994 631.712 17.5331C587.119 -4.87011 533.188 3.84535 497.922 39.1535L483.832 53.2429C459.293 77.6563 445.541 110.874 445.644 145.488C445.669 150.314 445.982 155.134 446.581 159.922L440.425 172.327C423.866 205.428 402.063 235.633 375.861 261.774L345.583 292.052L327.437 273.918L360.977 240.343C365.599 235.713 365.599 228.215 360.977 223.585L344.729 207.337C342.546 205.154 339.598 203.907 336.51 203.862L311.331 203.519L307.204 188.8C306.647 186.844 305.602 185.062 304.168 183.618L144.915 24.305C112.47 -8.11822 59.8849 -8.09895 27.4617 24.3465C-4.96147 56.7919 -4.9422 109.377 27.5032 141.8L186.068 300.366C187.466 301.761 189.19 302.784 191.085 303.342L206.847 308.027L207.736 334.119C207.841 337.124 209.082 339.976 211.211 342.1L226.866 357.755C231.497 362.385 239.005 362.385 243.636 357.755L277.104 324.263L295.214 342.373L259.101 378.474C233.002 404.698 202.792 426.478 169.666 442.956L157.356 449.218C152.556 448.613 147.724 448.296 142.887 448.269C108.27 448.164 75.0506 461.911 50.6298 486.446L36.5404 500.535C1.20562 535.78 -7.53061 589.718 14.8725 634.314C17.8123 640.166 24.94 642.528 30.7943 639.588C31.9239 639.021 32.9543 638.278 33.8482 637.385L92.5542 578.691C106.334 564.682 128.86 564.497 142.869 578.276C156.878 592.056 157.064 614.582 143.284 628.591C143.15 628.729 143.013 628.866 142.875 629L84.1693 687.706C79.547 692.347 79.5618 699.857 84.2019 704.479C85.0988 705.372 86.1321 706.116 87.2647 706.682C131.872 728.971 185.736 720.241 221.019 685.002L235.109 670.913C263.213 642.991 276.919 603.698 272.277 564.353L278.622 551.758C295.119 518.666 316.876 488.471 343.045 462.347L379.134 426.257L581.355 628.431C581.213 630.446 581.592 632.465 582.458 634.29L599.145 667.841C600.07 669.684 601.461 671.254 603.177 672.395L653.498 705.947C658.201 709.078 664.458 708.457 668.454 704.464L702.005 670.913C706.005 666.924 706.635 660.665 703.511 655.958L669.96 605.637ZM500.602 70.0127L514.691 55.9232C538.353 32.2199 573.024 23.2391 605.217 32.4764L559.308 78.3975C536.049 101.453 535.883 139 558.94 162.258C581.996 185.517 619.542 185.683 642.801 162.626C642.924 162.504 643.047 162.381 643.169 162.258L689.066 116.361C698.245 148.547 689.284 183.182 665.643 206.875L651.553 220.964C627.896 244.798 594.32 255.97 561.099 251.064H560.838C555.325 250.277 549.879 249.065 544.554 247.435L543.831 247.21C538.651 245.581 533.605 243.559 528.733 241.161L528.022 240.806C523.06 238.321 518.301 235.45 513.79 232.219C509.123 228.847 504.734 225.106 500.661 221.035C484.258 204.691 473.679 183.41 470.549 160.467C469.801 155.534 469.424 150.55 469.423 145.56C469.303 117.222 480.531 90.0157 500.602 70.0127ZM392.619 278.555C417.416 253.84 438.532 225.69 455.321 194.968C455.843 196.248 456.507 197.458 457.077 198.715C457.99 200.791 458.915 202.866 459.947 204.882C460.812 206.566 461.749 208.215 462.686 209.864C463.623 211.512 464.679 213.327 465.758 215.023C466.837 216.718 467.869 218.308 468.996 219.921C470.122 221.534 471.368 223.111 472.554 224.665C473.74 226.218 474.926 227.796 476.195 229.314C477.464 230.832 479.124 232.587 480.63 234.2C481.721 235.386 482.706 236.572 483.844 237.758C484.745 238.647 485.718 239.418 486.631 240.272C488.6 242.122 490.569 243.96 492.632 245.68C493.7 246.57 494.814 247.388 495.905 248.254C498.064 249.938 500.246 251.563 502.5 253.104C503.555 253.828 504.634 254.539 505.714 255.227C508.18 256.809 510.702 258.306 513.28 259.722C514.193 260.22 515.095 260.742 516.02 261.228C519.412 262.984 522.863 264.62 526.409 266.067L526.741 266.221C495.986 283.006 467.793 304.109 443.023 328.888L412.709 359.178L370.464 316.946L362.352 308.822L392.619 278.555ZM235.287 332.66L231.325 328.699L230.305 298.693C230.133 293.594 226.718 289.174 221.826 287.723L200.751 281.461L44.3323 125.113C21.1523 101.95 21.1389 64.3792 44.3026 41.1993C67.4663 18.0193 105.037 18.006 128.217 41.1696L285.193 198.193L290.873 218.462C292.297 223.519 296.876 227.036 302.128 227.108L331.351 227.511L335.822 231.982L235.287 332.66ZM218.351 654.167L204.214 668.292C180.53 691.94 145.892 700.9 113.712 691.703L159.609 645.806C182.484 622.368 182.027 584.826 158.589 561.951C135.57 539.486 98.8369 539.466 75.7963 561.91L29.8752 607.807C20.6201 575.615 29.5965 540.939 53.3101 517.281L67.3996 503.192C109.137 461.638 176.613 461.638 218.351 503.192C234.648 519.576 245.204 540.795 248.439 563.677V563.748C253.361 596.957 242.189 630.527 218.351 654.167ZM326.275 445.601C301.488 470.346 280.383 498.525 263.608 529.271C263.442 528.845 263.216 528.453 263.038 528.085C261.734 524.962 260.311 521.902 258.769 518.906C258.117 517.649 257.417 516.427 256.717 515.182C255.531 513.012 254.25 510.865 252.91 508.766C252.021 507.366 251.119 506.003 250.182 504.639C248.866 502.741 247.478 500.891 246.055 499.065C245.023 497.713 244.003 496.349 242.901 495.032C241.216 493.028 239.414 491.095 237.599 489.174C236.745 488.284 235.998 487.323 235.12 486.446C234.243 485.568 233.164 484.702 232.203 483.801C230.365 482.069 228.526 480.338 226.605 478.725C225.194 477.539 223.723 476.448 222.264 475.321C220.58 474.029 218.884 472.748 217.153 471.538C215.623 470.482 214.081 469.463 212.504 468.466C210.701 467.28 208.863 466.249 207.013 465.205C205.459 464.327 203.917 463.438 202.328 462.631C200.134 461.505 197.881 460.496 195.615 459.5C194.489 459.002 193.41 458.409 192.271 457.935C223.035 441.208 251.211 420.107 275.918 395.291L312.008 359.202L362.364 409.559L326.275 445.601ZM595.812 609.408L293.921 307.517L310.715 290.724L612.606 592.615L595.812 609.408ZM658.586 680.816L618.986 654.416L607.447 631.337L628.901 609.882L651.98 621.422L678.38 661.022L658.586 680.816Z"/>
</svg>
