<svg xmlns="http://www.w3.org/2000/svg" viewBox="0 0 315.9 32"><path d="M17.3,17.8H5.7v9.1H18.8v4.6H0V.5H18V5.1H5.7v8H17.4v4.7Z" style="fill:#37597f"/><path d="M23.7.9A45.118,45.118,0,0,1,31.9.3c4.2,0,6.8.5,8.9,2A6.445,6.445,0,0,1,44,8.1c0,2.9-1.8,5.5-5.2,6.7v.1a7.8,7.8,0,0,1,6.3,7.7,8.029,8.029,0,0,1-3,6.4c-2.2,1.9-5.8,2.9-11.5,2.9a51.7,51.7,0,0,1-6.9-.4Zm5.6,12.3h2.9c3.9,0,6.1-1.8,6.1-4.5,0-2.9-2.2-4.2-5.8-4.2a19.055,19.055,0,0,0-3.2.2Zm0,14.2a24.509,24.509,0,0,0,3,.1c3.6,0,6.9-1.4,6.9-5.2,0-3.6-3.1-5.1-7-5.1H29.4V27.4Z" style="fill:#37597f"/><path d="M50.2.9A46.235,46.235,0,0,1,58.8.3C63,.3,66,1.2,68,2.8a8.932,8.932,0,0,1,3,6.9,9.116,9.116,0,0,1-2.7,7C66,19,62.5,20,58.5,20a11.866,11.866,0,0,1-2.8-.2V31.5H50.1V.9Zm5.6,14.5a11.03,11.03,0,0,0,2.8.2c4.2,0,6.8-2.1,6.8-5.7,0-3.5-2.4-5.3-6.3-5.3a12.074,12.074,0,0,0-3.3.3Z" style="fill:#37597f"/><path d="M103.2,15.7c0,10.4-6.3,16.3-14.9,16.3C79.6,32,74,25.3,74,16.2,74,6.7,80,0,88.7,0,97.8,0,103.2,6.9,103.2,15.7ZM80,16.2c0,6.3,3.2,11.3,8.6,11.3,5.5,0,8.6-5.1,8.6-11.5,0-5.8-2.9-11.4-8.6-11.4C83,4.6,80,9.8,80,16.2Z" style="fill:#37597f"/><path d="M130.3,30.6a19.3,19.3,0,0,1-8,1.4c-9.8,0-15.8-6.2-15.8-15.6C106.5,6.2,113.6,0,123.1,0a17.36,17.36,0,0,1,7.5,1.4l-1.2,4.5a16.02,16.02,0,0,0-6.1-1.2c-6.3,0-10.9,4-10.9,11.4,0,6.8,4,11.2,10.8,11.2a15.9,15.9,0,0,0,6.2-1.2Z" style="fill:#37597f"/><path d="M142.2,5.2h-8.8V.5h23.4V5.2h-8.9V31.5h-5.7Z" style="fill:#37597f"/><path d="M165.7.5V11.4c0,4.9-.1,9.5-.4,13.6h.1a111.082,111.082,0,0,1,5.7-10.7L179.3.4h5.8v31h-5.2v-11a127.487,127.487,0,0,1,.4-12.8h-.1a90.091,90.091,0,0,1-5.5,10.7l-7.8,13.1h-6.3V.4h5.1Z" style="fill:#37597f"/><path d="M213.6.5v31h-5.7V5.2h-8.5v8.3c0,7.5-.7,14.2-5.2,17a11.155,11.155,0,0,1-5.5,1.5l-.7-4.6a6.119,6.119,0,0,0,3.4-1.7c2.2-2.2,2.5-7,2.5-11.9V.5Z" style="fill:#37597f"/><path d="M225.7.5V11.6c1-.1,2.6-.2,3.8-.2,6.5,0,12.1,3,12.1,9.9a9.422,9.422,0,0,1-2.4,6.7c-2.8,2.9-7.6,3.8-12.1,3.8a52.279,52.279,0,0,1-7-.4V.5Zm0,26.8a21.927,21.927,0,0,0,2.9.2c3.9,0,7.1-1.9,7.1-5.9,0-4.1-3.3-5.8-7.1-5.8a13.678,13.678,0,0,0-2.9.2Z" style="fill:#37597f"/><path d="M272.8,31.5l-3.4-6.2c-1.3-2.4-2.2-4-3.1-5.8h-.1a59.052,59.052,0,0,1-2.8,5.8l-3.1,6.2h-6.5L263,15.8,254.2.5h6.5l3.4,6.4c1,1.9,1.7,3.5,2.6,5.2h.1c.8-1.9,1.5-3.3,2.4-5.2L272.5.5H279l-9.1,15.1,9.4,15.9Z" style="fill:#87b0dd"/><path d="M299.5,31.5l-3.4-6.2c-1.3-2.4-2.2-4-3.1-5.8h-.1a59.052,59.052,0,0,1-2.8,5.8L287,31.5h-6.5l9.2-15.7L280.9.5h6.5l3.4,6.4c1,1.9,1.7,3.5,2.6,5.2h.1c.8-1.9,1.5-3.3,2.4-5.2L299.2.5h6.5l-9.1,15.1L306,31.5Z" style="fill:#87b0dd"/><path d="M315.9.5v31h-5.7V.5Z" style="fill:#87b0dd"/></svg>