<svg width="91" height="91" viewBox="0 0 91 91" xmlns="http://www.w3.org/2000/svg">
<path fill-rule="evenodd" clip-rule="evenodd" d="M45.5 91C20.3711 91 0 70.6289 0 45.5C0 20.3711 20.3711 0 45.5 0C70.6289 0 91 20.3711 91 45.5C91 70.6289 70.6289 91 45.5 91ZM46.134 42.9463C49.8595 42.9463 67.974 32.76 67.974 32.76L68.0032 30.94C68.0032 28.9308 66.3724 27.3 64.3577 27.3H27.9103C25.8975 27.3 24.2667 28.9308 24.2667 30.94V32.5617C24.2667 32.5617 42.5795 42.9463 46.134 42.9463ZM24.2959 38.22C24.294 38.22 42.5795 47.9513 46.134 47.9513C50.0307 47.9513 67.974 38.22 67.974 38.22L68.0032 60.06C68.0032 62.0692 66.3724 63.7 64.3577 63.7H27.9103C25.8992 63.7 24.2667 62.0692 24.2667 60.06L24.2959 38.22Z"/>
</svg>
