<svg width="91" height="91" viewBox="0 0 91 91" xmlns="http://www.w3.org/2000/svg">
<path fill-rule="evenodd" clip-rule="evenodd" d="M45.5 0C20.3711 0 0 20.3711 0 45.5C0 70.6289 20.3711 91 45.5 91C70.6289 91 91 70.6289 91 45.5C91 20.3711 70.6289 0 45.5 0ZM31.8269 22.75C31.9615 22.8567 32.0682 22.8567 32.1749 22.8429C32.7276 22.7964 33.2012 22.9311 33.5075 23.4372C33.5616 23.5248 33.6156 23.6124 33.6698 23.7002C34.3034 24.727 34.9379 25.7557 35.5412 26.8078C35.9778 27.5686 36.3943 28.3418 36.8112 29.1156C37.117 29.6831 37.423 30.2511 37.7373 30.8149C37.8588 31.0433 38.0109 31.2585 38.1629 31.4739C38.2488 31.5954 38.3347 31.7169 38.4151 31.8409C38.609 32.1494 38.7944 32.4661 38.9757 32.7754L39.0047 32.8252C39.3949 33.5635 39.3763 34.3062 38.7958 34.8958C38.1849 35.5205 37.5284 36.1122 36.873 36.7028C36.6417 36.9111 36.4106 37.1193 36.1818 37.3288C35.8974 37.5898 35.6087 37.8469 35.3201 38.1036C34.8646 38.5089 34.4096 38.9139 33.9718 39.3346C33.4146 39.8732 33.2707 40.5464 33.6469 41.2567C33.6816 41.322 33.7164 41.3872 33.7511 41.4522C34.2966 42.4735 34.8411 43.4935 35.439 44.4929C37.7976 48.4255 40.8108 51.7684 44.6181 54.3452C46.0852 55.3434 47.6127 56.2581 49.1542 57.1309C50.6074 57.9528 51.1739 57.8134 52.3021 56.5552C52.8981 55.8933 53.482 55.2256 54.0667 54.557C54.5115 54.0481 54.9568 53.5387 55.4082 53.0312C55.659 52.748 55.9608 52.4973 56.2534 52.2558C56.8475 51.7544 57.4976 51.6986 58.1801 52.0423C58.2229 52.0632 58.2664 52.0835 58.31 52.1039C58.4605 52.1747 58.6123 52.2458 58.7418 52.3394C59.9525 53.2056 61.2587 53.9014 62.5633 54.5964C63.2097 54.9409 63.856 55.2852 64.4898 55.6499C65.1433 56.0255 65.7856 56.4179 66.426 56.8094C66.7912 57.0325 67.1559 57.2553 67.5216 57.4745C68.065 57.7949 68.2832 58.2639 68.246 58.9092C68.1438 60.7245 67.842 62.5075 66.7881 64.0395C66.347 64.6758 65.7202 65.2328 65.0887 65.6832C63.3385 66.9089 61.3837 67.6657 59.3038 68.13C57.414 68.5526 55.529 68.3994 53.7183 67.8329C50.2221 66.7557 46.777 65.5208 43.6059 63.6496C40.7272 61.9456 38.1087 59.8888 35.6851 57.5907C32.6161 54.6701 29.8768 51.4852 27.6621 47.859C26.218 45.5051 25.1875 42.97 24.2542 40.3839C23.6877 38.8238 23.1305 37.2778 22.8799 35.6248C22.5921 33.7538 22.7917 31.9524 23.3906 30.1786C23.9292 28.5768 24.6024 27.0446 25.6192 25.6751C26.4177 24.6119 27.416 23.8318 28.7067 23.4835C29.436 23.2907 30.1699 23.1254 30.9036 22.9601C31.2115 22.8907 31.5194 22.8213 31.8269 22.75Z"/>
</svg>