<svg width="759" height="759" viewBox="0 0 759 759" fxmlns="http://www.w3.org/2000/svg">
<g clip-path="url(#clip0)">
<path d="M714.729 103.356H586.814C580.679 103.356 575.707 108.328 575.707 114.462C575.707 120.596 580.679 125.568 586.814 125.568H714.729C726.293 125.568 735.702 134.977 735.702 146.542V496.352H23.2962V146.542C23.2962 134.977 32.7051 125.568 44.2695 125.568H172.425C178.559 125.568 183.531 120.596 183.531 114.462C183.531 108.328 178.559 103.356 172.425 103.356H44.2695C20.4573 103.356 1.0835 122.73 1.0835 146.542V557.419C1.0835 581.231 20.4573 600.605 44.2695 600.605H297.853V602.822C297.853 632.446 284.127 660.631 260.973 678.933H224.305C202.23 678.933 184.272 696.893 184.272 718.967C184.272 741.042 202.23 759 224.305 759H534.695C556.769 759 574.727 741.041 574.727 718.967C574.727 696.893 556.769 678.933 534.695 678.933H498.027C474.872 660.63 461.144 632.444 461.144 602.822V600.605H714.729C738.541 600.605 757.915 581.231 757.915 557.419C757.915 536.38 757.915 160.07 757.915 146.542C757.916 122.728 738.542 103.356 714.729 103.356ZM534.695 701.146C544.52 701.146 552.515 709.14 552.515 718.967C552.515 728.793 544.52 736.787 534.695 736.787H224.305C214.48 736.787 206.485 728.793 206.485 718.967C206.485 709.14 214.48 701.146 224.305 701.146H534.695ZM466.442 678.933H292.557C310.093 657.748 320.067 630.809 320.067 602.822V600.605H438.93V602.822C438.932 630.809 448.905 657.748 466.442 678.933ZM735.704 557.419C735.704 568.983 726.295 578.392 714.73 578.392H44.271C32.7066 578.392 23.2977 568.983 23.2977 557.419V518.566H735.704V557.419Z"/>
<path d="M414.678 385.43C414.208 385.43 414.208 385.43 413.739 385.43C408.109 385.101 403.417 382.465 401.541 378.842L313.811 206.909L258.453 283.323C256.106 286.617 251.414 288.593 245.786 288.593H180.105C172.13 288.593 166.031 284.312 166.031 278.713C166.031 273.114 172.13 268.833 180.105 268.833H237.34L303.959 177.267C306.305 173.644 311.936 171.667 317.564 171.997C323.195 172.326 327.887 174.961 329.763 178.584L417.023 350.517L472.381 274.103C474.728 270.809 479.42 268.833 485.048 268.833H550.729C558.704 268.833 564.803 273.114 564.803 278.713C564.803 284.312 558.704 288.593 550.729 288.593H493.494L427.344 380.16C424.998 383.454 419.838 385.43 414.678 385.43Z"/>
</g>
<defs>
<clipPath id="clip0">
<rect width="759" height="759" fill="white"/>
</clipPath>
</defs>
</svg>
