<svg width="629" height="629" viewBox="0 0 629 629" xmlns="http://www.w3.org/2000/svg">
<path d="M225.49 384.288C219.753 384.288 215.106 379.64 215.106 373.903C215.106 326.188 254.807 275.101 313.909 275.101C339.713 275.101 361.369 285.276 377.328 298.495L376.98 284.587C376.835 278.85 381.367 274.087 387.098 273.942H387.365C392.98 273.942 397.598 278.421 397.743 284.065L398.734 323.534C399.899 327.736 398.311 332.389 394.481 334.939C391.885 336.671 388.79 337.083 386.003 336.324L346.482 335.327C340.745 335.182 336.213 330.419 336.358 324.682C336.503 318.951 341.324 314.407 347.003 314.564L364.579 315.004C351.894 304.4 334.44 295.875 313.909 295.875C262.989 295.875 235.875 341.191 235.875 373.909C235.875 379.64 231.227 384.288 225.49 384.288V384.288Z" fill="black"/>
<path d="M241.623 473.865C236.008 473.865 231.39 469.386 231.251 463.742L230.26 424.249C229.107 420.054 230.7 415.412 234.519 412.868C237.115 411.136 240.204 410.73 243.003 411.489L282.512 412.48C288.249 412.625 292.781 417.394 292.636 423.125C292.491 428.769 287.872 433.249 282.257 433.249C282.17 433.249 282.078 433.249 281.991 433.243L264.421 432.803C277.111 443.407 294.566 451.932 315.091 451.932C366.011 451.932 393.125 406.616 393.125 373.898C393.125 368.166 397.772 363.513 403.509 363.513C409.246 363.513 413.894 368.166 413.894 373.898C413.894 421.613 374.193 472.7 315.091 472.7C289.281 472.7 267.625 462.525 251.66 449.306L252.014 463.22C252.153 468.951 247.627 473.72 241.89 473.865C241.803 473.865 241.716 473.865 241.623 473.865Z" />
<path d="M559.276 592.04H69.7241C31.2808 592.04 0 560.765 0 522.316V106.811C0 68.3681 31.2808 37.0873 69.7241 37.0873H559.276C597.719 37.0873 629 68.3681 629 106.811V522.316C629 560.765 597.719 592.04 559.276 592.04ZM69.7241 57.8561C42.7315 57.8561 20.7689 79.8188 20.7689 106.811V522.316C20.7689 549.309 42.7315 571.271 69.7241 571.271H559.276C586.269 571.271 608.231 549.309 608.231 522.316V106.811C608.231 79.8188 586.269 57.8561 559.276 57.8561H69.7241Z" />
<path d="M618.616 203.372H10.3844C4.6475 203.372 0 198.724 0 192.987C0 187.256 4.6475 182.603 10.3844 182.603H618.616C624.353 182.603 629 187.256 629 192.987C629 198.724 624.353 203.372 618.616 203.372Z" />
<path d="M177.428 153.68C159.313 153.68 144.565 138.932 144.565 120.818C144.565 102.697 159.313 87.9547 177.428 87.9547C195.548 87.9547 210.291 102.697 210.291 120.818C210.291 138.932 195.548 153.68 177.428 153.68ZM177.428 108.724C170.764 108.724 165.334 114.148 165.334 120.818C165.334 127.487 170.764 132.911 177.428 132.911C184.098 132.911 189.522 127.487 189.522 120.818C189.522 114.148 184.098 108.724 177.428 108.724Z" />
<path d="M76.4575 153.362C58.3369 153.362 43.5947 138.619 43.5947 120.499C43.5947 102.378 58.3369 87.636 76.4575 87.636C94.5781 87.636 109.32 102.378 109.32 120.499C109.32 138.619 94.5781 153.362 76.4575 153.362ZM76.4575 108.405C69.7934 108.405 64.3636 113.835 64.3636 120.499C64.3636 127.169 69.7934 132.593 76.4575 132.593C83.1274 132.593 88.5514 127.169 88.5514 120.499C88.5514 113.835 83.1274 108.405 76.4575 108.405Z" />
<path d="M278.398 153.993C260.283 153.993 245.541 139.251 245.541 121.13C245.541 103.016 260.283 88.2734 278.398 88.2734C296.519 88.2734 311.261 103.016 311.261 121.13C311.261 139.251 296.519 153.993 278.398 153.993ZM278.398 109.037C271.734 109.037 266.31 114.461 266.31 121.13C266.31 127.8 271.734 133.224 278.398 133.224C285.068 133.224 290.492 127.8 290.492 121.13C290.492 114.461 285.068 109.037 278.398 109.037Z" />
</svg>
