<svg width="759" height="759" viewBox="0 0 759 759" xmlns="http://www.w3.org/2000/svg">
<g clip-path="url(#clip0)">
<path d="M385.874 311.521C435.152 308.406 474.661 268.898 477.776 219.621C481.514 160.443 432.706 111.208 373.124 114.969C323.847 118.082 284.337 157.59 281.223 206.868C277.469 266.277 326.554 315.281 385.874 311.521V311.521ZM303.393 208.268C305.803 170.127 336.384 139.546 374.525 137.136C420.542 134.242 458.516 172.167 455.606 218.218C453.196 256.36 422.615 286.941 384.474 289.351C338.502 292.246 300.481 254.358 303.393 208.268V208.268Z"/>
<path d="M209.853 160.924C209.77 160.923 209.691 160.924 209.61 160.924C185.795 160.924 166.255 179.489 166.255 203.473V221.966C166.255 246.006 185.812 265.566 209.853 265.566C225.878 265.566 233.908 284.843 222.544 296.207C205.546 313.206 205.546 340.867 222.544 357.866L234.878 370.199C251.918 387.237 279.496 387.241 296.536 370.199C307.871 358.866 327.178 366.824 327.178 382.892C327.178 406.932 346.735 426.49 370.776 426.49H388.219C412.26 426.49 431.819 406.931 431.819 382.892C431.819 366.843 451.119 358.856 462.461 370.199C479.461 387.198 507.119 387.198 524.119 370.199L536.453 357.866C553.45 340.867 553.45 313.206 536.453 296.207C525.08 284.837 533.132 265.566 549.145 265.566H549.387C573.255 265.566 592.743 246.957 592.743 223.019V203.474C592.743 179.517 573.235 160.926 549.388 160.926C549.332 160.926 549.276 160.926 549.219 160.926C549.194 160.926 549.172 160.926 549.147 160.926C533.107 160.926 525.096 141.637 536.453 130.284C553.45 113.285 553.45 85.6262 536.451 68.6258L523.375 55.5493C506.526 38.6957 479.508 39.1211 462.515 56.2372C451.182 67.6563 431.82 59.6779 431.82 43.598C431.82 19.5576 412.263 0 388.221 0H370.777C346.737 0 327.179 19.5591 327.179 43.598C327.179 59.623 307.903 67.6518 296.538 56.289C279.537 39.2901 251.88 39.2901 234.879 56.289L222.545 68.6228C205.548 85.6217 205.548 113.282 222.547 130.281C233.938 141.674 225.829 160.924 209.853 160.924V160.924ZM238.253 114.575C229.915 106.238 229.915 92.6692 238.253 84.3305L250.587 71.9968C258.943 63.6404 272.47 63.6389 280.828 71.9968C306.118 97.2869 349.39 79.4237 349.39 43.598C349.39 31.8054 358.985 22.2126 370.776 22.2126H388.219C400.012 22.2126 409.605 31.8068 409.605 43.598C409.605 79.4415 452.982 97.3655 478.275 71.8856C486.643 63.458 499.566 63.1497 507.667 71.2541L520.743 84.3305C529.082 92.6692 529.082 106.236 520.745 114.575C495.379 139.938 513.438 183.325 549.299 183.135H549.385C561.12 183.135 570.529 191.941 570.529 203.471V223.016C570.529 234.562 561.102 243.35 549.385 243.35C549.299 243.35 549.224 243.351 549.144 243.35C513.367 243.35 495.418 286.583 520.743 311.912C529.082 320.251 529.082 333.818 520.743 342.156L508.41 354.49C500.052 362.848 486.528 362.848 478.167 354.489C452.872 329.197 409.606 347.068 409.606 382.889C409.606 394.681 400.012 404.274 388.221 404.274H370.777C358.985 404.274 349.392 394.68 349.392 382.887C349.392 347.119 306.164 329.155 280.83 354.489C272.473 362.845 258.946 362.846 250.588 354.489L238.255 342.155C229.916 333.816 229.916 320.249 238.255 311.91C263.554 286.61 245.67 243.348 209.854 243.348C198.062 243.348 188.469 233.754 188.469 221.963V203.47C188.469 191.922 197.897 183.134 209.613 183.134H209.854C245.624 183.135 263.583 139.907 238.253 114.575V114.575Z"/>
<path d="M714.729 103.356H586.814C580.679 103.356 575.707 108.328 575.707 114.462C575.707 120.597 580.679 125.569 586.814 125.569H714.729C726.293 125.569 735.702 134.977 735.702 146.542V496.352H23.2961V146.542C23.2961 134.977 32.705 125.569 44.2694 125.569H172.425C178.559 125.569 183.531 120.597 183.531 114.462C183.531 108.328 178.559 103.356 172.425 103.356H44.2694C20.4573 103.356 1.0835 122.73 1.0835 146.542V557.419C1.0835 581.231 20.4573 600.605 44.2694 600.605H297.853V602.822C297.853 632.446 284.127 660.631 260.973 678.933H224.305C202.23 678.933 184.272 696.892 184.272 718.967C184.272 741.042 202.23 759 224.305 759H534.695C556.769 759 574.727 741.04 574.727 718.967C574.727 696.892 556.769 678.933 534.695 678.933H498.027C474.871 660.629 461.144 632.444 461.144 602.822V600.605H714.729C738.541 600.605 757.915 581.231 757.915 557.419C757.915 536.38 757.915 160.07 757.915 146.542C757.916 122.728 738.542 103.356 714.729 103.356V103.356ZM534.695 701.146C544.52 701.146 552.515 709.14 552.515 718.967C552.515 728.793 544.52 736.787 534.695 736.787H224.305C214.48 736.787 206.485 728.793 206.485 718.967C206.485 709.14 214.48 701.146 224.305 701.146H534.695ZM466.442 678.933H292.557C310.093 657.748 320.067 630.809 320.067 602.822V600.605H438.93V602.822C438.932 630.809 448.905 657.748 466.442 678.933ZM735.704 557.419C735.704 568.983 726.295 578.392 714.73 578.392H44.2709C32.7065 578.392 23.2976 568.983 23.2976 557.419V518.566H735.704V557.419Z"/>
</g>
<defs>
<clipPath id="clip0">
<rect width="759" height="759" fill="white"/>
</clipPath>
</defs>
</svg>
