<svg width="759" height="759" viewBox="0 0 759 759" xmlns="http://www.w3.org/2000/svg">
<path d="M750.543 380.557L665.302 296.087C653.979 284.867 638.965 278.688 623.025 278.688H515.514V129.745C515.514 109.773 499.266 93.5261 479.295 93.5261H36.2185C16.2473 93.5276 0 109.775 0 129.745V558.282C0 575.956 14.378 590.334 32.0529 590.334H69.8132C74.7333 632.573 110.712 665.473 154.25 665.473C197.788 665.473 233.768 632.575 238.686 590.334H535.882C540.802 632.573 576.781 665.473 620.318 665.473C663.857 665.473 699.835 632.575 704.755 590.334H730.435C746.186 590.334 758.999 577.52 758.999 561.77V400.844C759 393.278 755.917 385.883 750.543 380.557ZM623.025 300.923C633.064 300.923 642.519 304.814 649.649 311.881L734.89 396.351C736.08 397.531 736.764 399.167 736.764 400.844V510.991H726.402C710.941 510.991 697.356 519.144 689.698 531.37C674.28 509.636 648.938 495.411 620.321 495.411C577.627 495.411 542.194 527.042 536.196 568.098H515.515C515.515 541.142 515.515 328.141 515.515 300.923H623.025ZM216.158 522.242H493.279V568.1H238.375C235.803 550.491 227.811 534.631 216.158 522.242ZM36.2185 115.764H479.295C487.005 115.764 493.277 122.036 493.277 129.746V500.006H181.766C173.129 497.043 163.879 495.411 154.25 495.411C144.621 495.411 135.372 497.043 126.734 500.006H22.2363V129.745C22.2363 122.036 28.5085 115.764 36.2185 115.764ZM22.2363 558.283V522.242H92.3415C80.6882 534.631 72.6965 550.491 70.1245 568.1H32.0529C26.6391 568.1 22.2363 563.695 22.2363 558.283ZM154.25 643.236C119.626 643.236 91.4551 615.067 91.4551 580.442C91.4551 580.032 91.4788 579.627 91.4862 579.219V579.218C92.1444 545.158 120.036 517.648 154.25 517.648C188.875 517.648 217.044 545.817 217.044 580.442C217.044 615.067 188.875 643.236 154.25 643.236ZM620.319 643.236C585.695 643.236 557.526 615.067 557.526 580.442C557.526 545.817 585.695 517.648 620.319 517.648C654.534 517.648 682.426 545.158 683.084 579.218V579.219C683.767 614.685 655.096 643.236 620.319 643.236ZM730.437 568.1H705.351V554.278C705.351 542.672 714.794 533.229 726.402 533.229H736.764V561.773C736.764 565.261 733.925 568.1 730.437 568.1Z" />
<path d="M177.289 195.7C200.847 178.825 228.672 169.905 257.757 169.905C334.037 169.905 396.094 231.962 396.094 308.241C396.094 337.461 387.097 365.395 370.076 389.016C366.487 393.998 367.615 400.946 372.598 404.537C377.57 408.121 384.522 407.006 388.117 402.016C407.882 374.584 418.33 342.156 418.33 308.241C418.33 219.701 346.298 147.668 257.757 147.668C224 147.668 191.696 158.026 164.34 177.625C159.348 181.201 158.199 188.146 161.777 193.139C165.352 198.129 172.297 199.278 177.289 195.7Z" />
<path d="M257.758 468.816C290.189 468.816 321.443 459.191 348.14 440.982C353.212 437.522 354.52 430.603 351.06 425.531C347.6 420.458 340.683 419.149 335.61 422.61C312.621 438.291 285.701 446.58 257.758 446.58C236.81 446.58 216.939 441.891 199.128 433.521L205.129 427.52C219.897 412.752 239.46 404.044 260.291 402.999L261.102 402.955C283.937 401.677 305.427 392.058 321.612 375.872C344.173 353.31 353.534 321.22 346.653 290.027C343.212 274.427 323.783 268.696 312.416 280.061L272.097 320.379C269.223 323.252 264.568 323.263 261.683 320.378L245.618 304.314C242.747 301.442 242.747 296.769 245.618 293.899L285.936 253.582C297.252 242.268 291.636 222.799 275.972 219.345C244.779 212.464 212.686 221.825 190.127 244.386C173.942 260.571 164.324 282.06 163.041 304.927L163.012 305.465C161.907 326.477 153.195 346.151 138.476 360.87L132.476 366.871C124.106 349.06 119.417 329.19 119.417 308.241C119.417 280.519 127.585 253.776 143.036 230.903C146.474 225.816 145.136 218.905 140.048 215.467C134.959 212.031 128.048 213.368 124.61 218.457C106.665 245.019 97.1807 276.065 97.1807 308.241C97.1836 396.982 169.219 468.816 257.758 468.816ZM154.203 376.593C172.812 357.984 183.828 333.139 185.221 306.593L185.247 306.139C186.221 288.768 193.538 272.422 205.851 260.107C222.177 243.783 245.065 236.537 267.692 240.378L229.894 278.173C218.354 289.714 218.354 308.493 229.894 320.036L245.961 336.101C257.53 347.669 276.251 347.669 287.821 336.101L325.619 298.303C329.454 320.929 322.214 343.82 305.888 360.147C293.573 372.461 277.228 379.777 259.842 380.751L259.098 380.791C232.829 382.111 208.077 393.119 189.403 411.793L179.175 422.023C165.433 412.503 153.492 400.562 143.972 386.82L154.203 376.593Z" />
</svg>
