<svg width="759" height="759" viewBox="0 0 759 759" xmlns="http://www.w3.org/2000/svg">
<path d="M723.422 438.797C726.568 438.797 729.584 437.547 731.808 435.324C734.032 433.1 735.281 430.083 735.281 426.938V332.062C735.281 328.917 734.032 325.9 731.808 323.676C729.584 321.453 726.568 320.203 723.422 320.203H657.804C650.595 286.192 637.179 253.801 618.229 224.652L664.576 178.199C666.795 175.975 668.042 172.962 668.042 169.82C668.042 166.679 666.795 163.665 664.576 161.442L597.57 94.4362C595.347 92.2166 592.333 90.9699 589.192 90.9699C586.05 90.9699 583.037 92.2166 580.813 94.4362L534.348 140.771C505.199 121.82 472.808 108.405 438.797 101.196V35.5781C438.797 32.4329 437.547 29.4163 435.324 27.1922C433.1 24.9683 430.083 23.7188 426.938 23.7188H332.062C328.917 23.7188 325.9 24.9683 323.676 27.1922C321.453 29.4163 320.203 32.4329 320.203 35.5781V101.196C286.192 108.405 253.801 121.82 224.652 140.771L178.199 94.4243C175.975 92.2047 172.962 90.958 169.82 90.958C166.679 90.958 163.665 92.2047 161.442 94.4243L94.4362 161.43C92.2166 163.653 90.9699 166.667 90.9699 169.808C90.9699 172.95 92.2166 175.963 94.4362 178.187L140.783 224.64C121.827 253.791 108.407 286.187 101.196 320.203H35.5781C32.4329 320.203 29.4163 321.453 27.1922 323.676C24.9683 325.9 23.7188 328.917 23.7188 332.062V426.938C23.7188 430.083 24.9683 433.1 27.1922 435.324C29.4163 437.547 32.4329 438.797 35.5781 438.797H101.196C108.405 472.808 121.82 505.199 140.771 534.348L94.4243 580.801C92.2047 583.025 90.958 586.038 90.958 589.18C90.958 592.321 92.2047 595.335 94.4243 597.558L161.43 664.564C163.653 666.783 166.667 668.03 169.808 668.03C172.95 668.03 175.963 666.783 178.187 664.564L224.64 618.217C253.791 637.173 286.187 650.593 320.203 657.804V723.422C320.203 726.568 321.453 729.584 323.676 731.808C325.9 734.032 328.917 735.281 332.062 735.281H426.938C430.083 735.281 433.1 734.032 435.324 731.808C437.547 729.584 438.797 726.568 438.797 723.422V657.804C472.798 650.567 505.177 637.132 534.312 618.17L631.073 714.931C642.21 725.97 657.266 732.149 672.948 732.115C688.629 732.081 703.658 725.835 714.747 714.747C725.835 703.658 732.081 688.629 732.115 672.948C732.149 657.266 725.97 642.21 714.931 631.073L618.17 534.312C637.132 505.177 650.567 472.798 657.804 438.797H723.422ZM698.161 698.161C694.857 701.466 690.935 704.087 686.618 705.876C682.301 707.664 677.674 708.584 673.002 708.584C668.329 708.584 663.703 707.664 659.386 705.876C655.069 704.087 651.146 701.466 647.842 698.161L420.759 471.09C415.243 465.581 408.692 461.22 401.483 458.257C394.272 455.293 386.547 453.786 378.753 453.823C376.28 453.821 373.809 453.968 371.353 454.262C355.967 456.11 340.361 454.158 325.905 448.575C311.448 442.994 298.581 433.952 288.429 422.244C278.277 410.536 271.151 396.517 267.674 381.415C264.197 366.314 264.474 350.59 268.484 335.62L320.796 387.944C323.02 390.168 326.035 391.419 329.181 391.419H379.5C382.646 391.419 385.662 390.169 387.886 387.945C390.11 385.722 391.359 382.705 391.359 379.559V329.181C391.359 326.035 390.108 323.02 387.885 320.796L335.62 268.484C350.587 264.485 366.305 264.214 381.399 267.694C396.494 271.176 410.506 278.304 422.209 288.454C433.911 298.606 442.948 311.469 448.527 325.921C454.107 340.373 456.06 355.971 454.214 371.353C453.07 380.326 453.992 389.441 456.908 398.004C459.824 406.568 464.659 414.35 471.043 420.759L698.161 647.842C701.466 651.146 704.087 655.069 705.876 659.386C707.664 663.703 708.584 668.329 708.584 673.002C708.584 677.674 707.664 682.301 705.876 686.618C704.087 690.935 701.466 694.857 698.161 698.161ZM487.859 404.049C484.023 400.172 481.124 395.469 479.386 390.299C477.647 385.129 477.113 379.63 477.826 374.223C480.367 353.143 477.199 331.768 468.651 312.331C460.104 292.895 446.492 276.111 429.238 263.736C411.986 251.362 391.724 243.849 370.574 241.985C349.423 240.121 328.161 243.973 309.008 253.138C307.299 253.958 305.812 255.177 304.67 256.69C303.529 258.205 302.767 259.969 302.448 261.839C302.131 263.708 302.264 265.626 302.841 267.432C303.416 269.239 304.417 270.88 305.758 272.22L367.641 334.09V367.641H334.09L272.22 305.758C270.88 304.417 269.239 303.416 267.432 302.841C265.626 302.264 263.708 302.131 261.839 302.448C259.969 302.767 258.205 303.529 256.69 304.67C255.177 305.812 253.958 307.299 253.138 309.008C243.976 328.155 240.124 349.411 241.986 370.555C243.847 391.7 251.355 411.956 263.723 429.207C276.091 446.458 292.864 460.07 312.293 468.62C331.72 477.171 353.089 480.346 374.163 477.814C379.571 477.103 385.071 477.639 390.24 479.38C395.411 481.122 400.113 484.021 403.99 487.859L464.994 548.852C424.693 569.211 378.455 574.542 334.578 563.888C290.701 553.234 252.058 527.292 225.582 490.717C199.106 454.143 186.529 409.329 190.11 364.32C193.692 319.311 213.196 277.051 245.123 245.123C277.051 213.196 319.311 193.692 364.32 190.11C409.329 186.529 454.143 199.106 490.717 225.582C527.292 252.058 553.234 290.701 563.888 334.578C574.542 378.455 569.211 424.693 548.852 464.994L487.859 404.049ZM636.315 424.993C630.596 457.724 618.621 489.048 601.045 517.247L566.368 482.57C591.248 437.485 599.013 384.933 588.235 334.58C577.458 284.226 548.862 239.457 507.709 208.507C466.554 177.556 415.609 162.505 364.243 166.12C312.876 169.736 264.541 191.778 228.13 228.189C191.719 264.6 169.677 312.935 166.061 364.302C162.445 415.668 177.496 466.613 208.448 507.768C239.398 548.922 284.167 577.517 334.52 588.295C384.874 599.072 437.426 591.307 482.511 566.427L517.187 601.104C488.989 618.68 457.665 630.655 424.933 636.374C422.186 636.845 419.694 638.267 417.892 640.393C416.091 642.519 415.094 645.209 415.078 647.996V711.562H343.922V647.996C343.92 645.2 342.93 642.494 341.128 640.356C339.323 638.218 336.823 636.788 334.067 636.315C296.656 629.765 261.148 615.051 230.072 593.218C227.787 591.612 225.011 590.865 222.23 591.105C219.449 591.347 216.843 592.561 214.868 594.534L169.897 639.422L119.637 589.162L164.525 544.191C166.498 542.217 167.712 539.61 167.954 536.829C168.194 534.048 167.447 531.272 165.842 528.987C144 497.894 129.285 462.364 122.745 424.933C122.27 422.167 120.83 419.659 118.68 417.853C116.531 416.049 113.81 415.066 111.004 415.078H47.4375V343.922H111.004C113.8 343.92 116.506 342.93 118.644 341.128C120.781 339.323 122.213 336.823 122.685 334.067C129.234 296.656 143.949 261.148 165.782 230.072C167.388 227.787 168.135 225.011 167.895 222.23C167.653 219.449 166.439 216.843 164.466 214.868L119.578 169.897L169.838 119.637L214.809 164.525C216.783 166.498 219.39 167.712 222.171 167.954C224.952 168.194 227.728 167.447 230.013 165.842C261.106 144 296.636 129.285 334.067 122.745C336.833 122.27 339.341 120.83 341.147 118.68C342.951 116.531 343.934 113.81 343.922 111.004V47.4375H415.078V111.004C415.08 113.8 416.07 116.506 417.873 118.644C419.677 120.781 422.177 122.213 424.933 122.685C462.364 129.226 497.894 143.941 528.987 165.782C531.272 167.388 534.048 168.135 536.829 167.895C539.61 167.653 542.217 166.439 544.191 164.466L589.162 119.578L639.422 169.838L594.534 214.809C592.561 216.783 591.347 219.39 591.105 222.171C590.865 224.952 591.612 227.728 593.218 230.013C615.06 261.106 629.774 296.636 636.315 334.067C636.788 336.823 638.218 339.323 640.356 341.128C642.494 342.93 645.2 343.92 647.996 343.922H711.562V415.078H647.996C645.2 415.08 642.494 416.07 640.356 417.873C638.218 419.677 636.788 422.177 636.315 424.933V424.993Z" />
<path d="M622.688 639.457C624.925 641.617 627.921 642.814 631.03 642.786C634.14 642.759 637.114 641.512 639.314 639.314C641.512 637.114 642.759 634.14 642.786 631.03C642.814 627.921 641.617 624.925 639.458 622.688L496.908 480.127C494.683 477.902 491.665 476.652 488.517 476.652C485.37 476.652 482.352 477.902 480.127 480.127C477.902 482.352 476.652 485.37 476.652 488.517C476.652 491.664 477.902 494.683 480.127 496.908L622.688 639.457Z" />
</svg>
