<?xml version="1.0" encoding="utf-8"?><svg viewBox="0 0 512 512" xmlns="http://www.w3.org/2000/svg" xmlns:xlink="http://www.w3.org/1999/xlink"><style>:root>svg{display:none}:root>svg:target{display:block}</style><svg viewBox="0 0 25.451 25.451" id="breadcrumbs" xmlns="http://www.w3.org/2000/svg"><path d="M20.982.521v2.006L8.57 12.315c-.121.101-.195.251-.195.41s.074.311.195.41l12.412 9.79v2.005a.52.52 0 01-.297.469.519.519 0 01-.549-.061L4.664 13.136a.531.531 0 010-.82L20.136.113a.523.523 0 01.846.408z"/></svg><svg viewBox="0 0 488.878 488.878" id="check" xmlns="http://www.w3.org/2000/svg"><path fill="#87b0dd" d="M143.294 340.058l-92.457-92.456L0 298.439l122.009 122.008.14-.141 22.274 22.274L488.878 98.123l-51.823-51.825z"/></svg><svg viewBox="0 0 341.751 341.751" id="close" xmlns="http://www.w3.org/2000/svg"><path d="M-.007 311.525L311.535.072 341.7 30.246 30.16 341.699z"/><path d="M.047 30.226L30.212.052l311.542 311.454-30.166 30.174z"/></svg><svg viewBox="0 0 426.667 426.667" id="done" xmlns="http://www.w3.org/2000/svg"><path d="M293.333 135.04L190.08 240.213l-52.907-53.12-28.373 28.374 83.413 83.2 133.974-129.92z"/><path d="M213.333 0C95.513 0 0 95.513 0 213.333s95.513 213.333 213.333 213.333 213.333-95.513 213.333-213.333S331.154 0 213.333 0zm0 388.053c-96.495 0-174.72-78.225-174.72-174.72s78.225-174.72 174.72-174.72c96.446.117 174.602 78.273 174.72 174.72 0 96.496-78.224 174.72-174.72 174.72z"/></svg><svg viewBox="0 0 426.667 426.667" id="download" xmlns="http://www.w3.org/2000/svg"><path d="M283.52 181.333l-38.4 38.4-10.453 24.96V32H192v212.267l-11.307-25.387-37.546-37.76-27.307 28.8 97.493 97.493 97.707-97.706z"/><path d="M384 266.667V352H42.667v-85.333H0v128h426.667v-128z"/></svg><svg viewBox="0 0 315.9 32" id="logo" xmlns="http://www.w3.org/2000/svg"><path d="M17.3 17.8H5.7v9.1h13.1v4.6H0V.5h18v4.6H5.7v8h11.7v4.7zM23.7.9a45.118 45.118 0 018.2-.6c4.2 0 6.8.5 8.9 2A6.445 6.445 0 0144 8.1c0 2.9-1.8 5.5-5.2 6.7v.1a7.8 7.8 0 016.3 7.7 8.029 8.029 0 01-3 6.4c-2.2 1.9-5.8 2.9-11.5 2.9a51.7 51.7 0 01-6.9-.4zm5.6 12.3h2.9c3.9 0 6.1-1.8 6.1-4.5 0-2.9-2.2-4.2-5.8-4.2a19.055 19.055 0 00-3.2.2zm0 14.2a24.509 24.509 0 003 .1c3.6 0 6.9-1.4 6.9-5.2 0-3.6-3.1-5.1-7-5.1h-2.8v10.2zM50.2.9a46.235 46.235 0 018.6-.6c4.2 0 7.2.9 9.2 2.5a8.932 8.932 0 013 6.9 9.116 9.116 0 01-2.7 7C66 19 62.5 20 58.5 20a11.866 11.866 0 01-2.8-.2v11.7h-5.6V.9zm5.6 14.5a11.03 11.03 0 002.8.2c4.2 0 6.8-2.1 6.8-5.7 0-3.5-2.4-5.3-6.3-5.3a12.074 12.074 0 00-3.3.3zM103.2 15.7c0 10.4-6.3 16.3-14.9 16.3C79.6 32 74 25.3 74 16.2 74 6.7 80 0 88.7 0c9.1 0 14.5 6.9 14.5 15.7zm-23.2.5c0 6.3 3.2 11.3 8.6 11.3 5.5 0 8.6-5.1 8.6-11.5 0-5.8-2.9-11.4-8.6-11.4C83 4.6 80 9.8 80 16.2zM130.3 30.6a19.3 19.3 0 01-8 1.4c-9.8 0-15.8-6.2-15.8-15.6 0-10.2 7.1-16.4 16.6-16.4a17.36 17.36 0 017.5 1.4l-1.2 4.5a16.02 16.02 0 00-6.1-1.2c-6.3 0-10.9 4-10.9 11.4 0 6.8 4 11.2 10.8 11.2a15.9 15.9 0 006.2-1.2zM142.2 5.2h-8.8V.5h23.4v4.7h-8.9v26.3h-5.7zM165.7.5v10.9c0 4.9-.1 9.5-.4 13.6h.1a111.082 111.082 0 015.7-10.7L179.3.4h5.8v31h-5.2v-11a127.487 127.487 0 01.4-12.8h-.1a90.091 90.091 0 01-5.5 10.7l-7.8 13.1h-6.3V.4h5.1zM213.6.5v31h-5.7V5.2h-8.5v8.3c0 7.5-.7 14.2-5.2 17a11.155 11.155 0 01-5.5 1.5l-.7-4.6a6.119 6.119 0 003.4-1.7c2.2-2.2 2.5-7 2.5-11.9V.5zM225.7.5v11.1c1-.1 2.6-.2 3.8-.2 6.5 0 12.1 3 12.1 9.9a9.422 9.422 0 01-2.4 6.7c-2.8 2.9-7.6 3.8-12.1 3.8a52.279 52.279 0 01-7-.4V.5zm0 26.8a21.927 21.927 0 002.9.2c3.9 0 7.1-1.9 7.1-5.9 0-4.1-3.3-5.8-7.1-5.8a13.678 13.678 0 00-2.9.2z" fill="#37597f"/><path d="M272.8 31.5l-3.4-6.2c-1.3-2.4-2.2-4-3.1-5.8h-.1a59.052 59.052 0 01-2.8 5.8l-3.1 6.2h-6.5l9.2-15.7L254.2.5h6.5l3.4 6.4c1 1.9 1.7 3.5 2.6 5.2h.1c.8-1.9 1.5-3.3 2.4-5.2l3.3-6.4h6.5l-9.1 15.1 9.4 15.9zM299.5 31.5l-3.4-6.2c-1.3-2.4-2.2-4-3.1-5.8h-.1a59.052 59.052 0 01-2.8 5.8l-3.1 6.2h-6.5l9.2-15.7L280.9.5h6.5l3.4 6.4c1 1.9 1.7 3.5 2.6 5.2h.1c.8-1.9 1.5-3.3 2.4-5.2l3.3-6.4h6.5l-9.1 15.1 9.4 15.9zM315.9.5v31h-5.7V.5z" fill="#87b0dd"/></svg><svg viewBox="0 0 27 28" id="menu-close" xmlns="http://www.w3.org/2000/svg"><path fill-rule="evenodd" d="M1.833.918l24.748 24.749-1.414 1.414L.418 2.333 1.833.918z"/><path fill-rule="evenodd" d="M25.167.918L.418 25.667l1.415 1.414L26.581 2.333 25.167.918z"/></svg><svg viewBox="0 0 512 512" id="pin" xmlns="http://www.w3.org/2000/svg"><path fill="#87b0dd" d="M256 0C148.48 0 61 87.48 61 195c0 42.55 13.44 82.98 38.9 116.9l144.08 194.051c.36.47.91.65 1.31 1.07 7.2 7.71 17.59 5.77 22.72-1.07C309.5 450.591 385.55 347.2 414.79 308.2c0 0 .01-.03.02-.05l.18-.24C438.55 274.81 451 235.77 451 195 451 87.48 363.52 0 256 0zm0 300.2c-57.89 0-105.2-47.31-105.2-105.2S198.11 89.8 256 89.8 361.2 137.11 361.2 195 313.89 300.2 256 300.2z"/></svg><svg viewBox="0 0 512 512" id="placeholder" xmlns="http://www.w3.org/2000/svg"><path d="M256 0C148.48 0 61 87.48 61 195c0 42.55 13.44 82.98 38.9 116.9l144.08 194.051c.36.47.91.65 1.31 1.07 7.2 7.71 17.59 5.77 22.72-1.07C309.5 450.591 385.55 347.2 414.79 308.2c0 0 .01-.03.02-.05l.18-.24C438.55 274.81 451 235.77 451 195 451 87.48 363.52 0 256 0zm0 300.2c-57.89 0-105.2-47.31-105.2-105.2S198.11 89.8 256 89.8 361.2 137.11 361.2 195 313.89 300.2 256 300.2z"/></svg><svg viewBox="0 0 341.4 341.4" id="plus" xmlns="http://www.w3.org/2000/svg"><path d="M192 149.4V0h-42.6v149.4H0V192h149.4v149.4H192V192h149.4v-42.6z"/></svg><svg viewBox="0 0 427.333 427.333" id="reload" xmlns="http://www.w3.org/2000/svg"><path d="M391.386 213.333c-.118 98.096-79.611 177.589-177.707 177.707-98.027.159-177.622-79.179-177.78-177.206a177.493 177.493 0 0122.687-87.114l-25.813-25.813C-29.671 200.819.704 332.435 100.616 394.879s231.528 32.069 293.972-67.843a213.334 213.334 0 0032.425-113.702h-35.627zM363.013 0v74.027C359.386 70.4 355.76 54.4 351.92 51.2 265.403-22.306 136.475-15.179 58.586 67.413L85.68 94.72c65.057-70.627 175.051-75.141 245.678-10.084a173.888 173.888 0 0120.136 22.031h-95.147v42.667H405.68V0h-42.667z"/></svg></svg>