<?xml version="1.0" encoding="utf-8"?><svg viewBox="0 0 759 759" xmlns="http://www.w3.org/2000/svg" xmlns:xlink="http://www.w3.org/1999/xlink"><style>:root>svg{display:none}:root>svg:target{display:block}</style><svg viewBox="0 0 91 91" id="Mail_black" xmlns="http://www.w3.org/2000/svg"><path fill-rule="evenodd" clip-rule="evenodd" d="M45.5 91C20.371 91 0 70.629 0 45.5S20.371 0 45.5 0 91 20.371 91 45.5 70.629 91 45.5 91zm.634-48.054c3.725 0 21.84-10.186 21.84-10.186l.03-1.82c0-2.01-1.632-3.64-3.646-3.64H27.91a3.642 3.642 0 00-3.643 3.64v1.622S42.58 42.946 46.134 42.946zM24.296 38.22c-.002 0 18.284 9.731 21.838 9.731 3.897 0 21.84-9.731 21.84-9.731l.03 21.84c0 2.01-1.632 3.64-3.646 3.64H27.91a3.643 3.643 0 01-3.643-3.64l.029-21.84z"/></svg><svg viewBox="0 0 91 91" id="Phone_black" xmlns="http://www.w3.org/2000/svg"><path fill-rule="evenodd" clip-rule="evenodd" d="M45.5 0C20.371 0 0 20.371 0 45.5S20.371 91 45.5 91 91 70.629 91 45.5 70.629 0 45.5 0zM31.827 22.75a.411.411 0 00.348.093c.553-.047 1.026.088 1.333.594l.162.263a112.455 112.455 0 011.871 3.108c.437.76.853 1.534 1.27 2.308.306.567.612 1.135.926 1.699.122.228.274.444.426.659.086.121.172.243.252.367.194.308.38.625.56.934l.03.05c.39.738.371 1.481-.21 2.07-.61.625-1.267 1.217-1.922 1.808-.231.208-.462.416-.691.626-.285.26-.573.518-.862.775-.455.405-.91.81-1.348 1.23-.557.54-.701 1.212-.325 1.923l.104.195c.546 1.022 1.09 2.041 1.688 3.04 2.359 3.934 5.372 7.276 9.18 9.853 1.466.998 2.994 1.913 4.535 2.786 1.453.822 2.02.682 3.148-.576.596-.662 1.18-1.33 1.765-1.998.444-.509.89-1.018 1.341-1.526.251-.283.553-.534.845-.775.594-.502 1.245-.557 1.927-.214l.13.062c.15.07.302.142.432.235 1.21.867 2.517 1.562 3.821 2.257.647.345 1.293.69 1.927 1.054.653.376 1.296.768 1.936 1.16.365.222.73.445 1.096.664.543.32.761.79.724 1.435-.102 1.816-.404 3.599-1.458 5.13-.441.637-1.068 1.194-1.7 1.644-1.75 1.226-3.704 1.983-5.784 2.447-1.89.423-3.775.27-5.586-.297-3.496-1.077-6.941-2.312-10.112-4.183-2.879-1.704-5.497-3.761-7.92-6.06-3.07-2.92-5.81-6.105-8.024-9.731-1.444-2.354-2.474-4.889-3.408-7.475-.566-1.56-1.123-3.106-1.374-4.76-.288-1.87-.088-3.672.51-5.445.54-1.602 1.212-3.134 2.23-4.504.798-1.063 1.796-1.843 3.087-2.192.729-.192 1.463-.358 2.197-.523l.923-.21z"/></svg><svg viewBox="0 0 25.451 25.451" id="breadcrumbs" xmlns="http://www.w3.org/2000/svg"><path d="M20.982.521v2.006L8.57 12.315c-.121.101-.195.251-.195.41s.074.311.195.41l12.412 9.79v2.005a.52.52 0 01-.297.469.519.519 0 01-.549-.061L4.664 13.136a.531.531 0 010-.82L20.136.113a.523.523 0 01.846.408z"/></svg><svg viewBox="0 0 488.878 488.878" id="check" xmlns="http://www.w3.org/2000/svg"><path fill="#87b0dd" d="M143.294 340.058l-92.457-92.456L0 298.439l122.009 122.008.14-.141 22.274 22.274L488.878 98.123l-51.823-51.825z"/></svg><svg viewBox="0 0 341.751 341.751" id="close" xmlns="http://www.w3.org/2000/svg"><path d="M-.007 311.525L311.535.072 341.7 30.246 30.16 341.699z"/><path d="M.047 30.226L30.212.052l311.542 311.454-30.166 30.174z"/></svg><svg viewBox="0 0 426.667 426.667" id="done" xmlns="http://www.w3.org/2000/svg"><path d="M293.333 135.04L190.08 240.213l-52.907-53.12-28.373 28.374 83.413 83.2 133.974-129.92z"/><path d="M213.333 0C95.513 0 0 95.513 0 213.333s95.513 213.333 213.333 213.333 213.333-95.513 213.333-213.333S331.154 0 213.333 0zm0 388.053c-96.495 0-174.72-78.225-174.72-174.72s78.225-174.72 174.72-174.72c96.446.117 174.602 78.273 174.72 174.72 0 96.496-78.224 174.72-174.72 174.72z"/></svg><svg viewBox="0 0 426.667 426.667" id="download" xmlns="http://www.w3.org/2000/svg"><path d="M283.52 181.333l-38.4 38.4-10.453 24.96V32H192v212.267l-11.307-25.387-37.546-37.76-27.307 28.8 97.493 97.493 97.707-97.706z"/><path d="M384 266.667V352H42.667v-85.333H0v128h426.667v-128z"/></svg><svg viewBox="0 0 719 719" id="hand-tool" xmlns="http://www.w3.org/2000/svg"><path d="M669.96 605.637a11.868 11.868 0 00-4.554-4.033l-24.823-12.405a11.553 11.553 0 00-2.811-4.957L429.479 375.948l30.278-30.242a343.329 343.329 0 0189.458-64.482l12.417-6.25a133.4 133.4 0 0015.003.937 128.972 128.972 0 0091.688-38.13l14.09-14.089c35.266-35.293 44.002-89.187 21.691-133.814-2.931-5.857-10.055-8.23-15.913-5.299a11.875 11.875 0 00-3.062 2.203l-58.706 58.706c-13.878 13.912-36.406 13.942-50.317.064a35.569 35.569 0 01-10.453-25.183 35.39 35.39 0 0110.425-25.154l58.706-58.706c4.626-4.636 4.619-12.146-.018-16.773a11.851 11.851 0 00-3.054-2.203c-44.593-22.403-98.524-13.688-133.79 21.62l-14.09 14.09a129.58 129.58 0 00-38.188 92.245c.025 4.826.338 9.646.937 14.434l-6.156 12.405a343.324 343.324 0 01-64.564 89.447l-30.278 30.278-18.146-18.134 33.54-33.575c4.622-4.63 4.622-12.128 0-16.758l-16.248-16.248a11.868 11.868 0 00-8.219-3.475l-25.179-.343-4.127-14.719a12.03 12.03 0 00-3.036-5.182L144.915 24.305c-32.445-32.423-85.03-32.404-117.453.041-32.423 32.446-32.404 85.031.041 117.454l158.565 158.566a11.834 11.834 0 005.017 2.976l15.762 4.685.889 26.092a11.856 11.856 0 003.475 7.981l15.655 15.655c4.631 4.63 12.139 4.63 16.77 0l33.468-33.492 18.11 18.11-36.113 36.101a339.51 339.51 0 01-89.435 64.482l-12.31 6.262c-4.8-.605-9.632-.922-14.469-.949a129.613 129.613 0 00-92.257 38.177l-14.09 14.089C1.206 535.78-7.53 589.718 14.873 634.314c2.94 5.852 10.067 8.214 15.921 5.274 1.13-.567 2.16-1.31 3.054-2.203l58.706-58.694c13.78-14.009 36.306-14.194 50.315-.415 14.009 13.78 14.195 36.306.415 50.315-.134.138-.271.275-.409.409l-58.706 58.706c-4.622 4.641-4.607 12.151.033 16.773.897.893 1.93 1.637 3.063 2.203 44.607 22.289 98.471 13.559 133.754-21.68l14.09-14.089a128.918 128.918 0 0037.168-106.56l6.345-12.595a341.834 341.834 0 0164.423-89.411l36.089-36.09 202.221 202.174a11.743 11.743 0 001.103 5.859l16.687 33.551a11.859 11.859 0 004.032 4.554l50.321 33.552a11.86 11.86 0 0014.956-1.483l33.551-33.551a11.86 11.86 0 001.506-14.955l-33.551-50.321zM500.602 70.013l14.089-14.09c23.662-23.703 58.333-32.684 90.526-23.447l-45.909 45.921c-23.259 23.056-23.425 60.603-.368 83.861 23.056 23.259 60.602 23.425 83.861.368l.368-.368 45.897-45.897c9.179 32.186.218 66.821-23.423 90.514l-14.09 14.089a105.691 105.691 0 01-90.454 30.1h-.261a107.582 107.582 0 01-16.284-3.629l-.723-.225a106.603 106.603 0 01-15.098-6.049l-.711-.355a105.81 105.81 0 01-14.232-8.587 108.262 108.262 0 01-13.129-11.184 105.665 105.665 0 01-30.112-60.568 99.578 99.578 0 01-1.126-14.907 106.025 106.025 0 0131.179-75.547zM392.619 278.555a365.436 365.436 0 0062.702-83.587c.522 1.28 1.186 2.49 1.756 3.747.913 2.076 1.838 4.151 2.87 6.167.865 1.684 1.802 3.333 2.739 4.982.937 1.648 1.993 3.463 3.072 5.159a134.793 134.793 0 003.238 4.898c1.126 1.613 2.372 3.19 3.558 4.744 1.186 1.553 2.372 3.131 3.641 4.649 1.269 1.518 2.929 3.273 4.435 4.886 1.091 1.186 2.076 2.372 3.214 3.558.901.889 1.874 1.66 2.787 2.514 1.969 1.85 3.938 3.688 6.001 5.408 1.068.89 2.182 1.708 3.273 2.574a130.3 130.3 0 006.595 4.85c1.055.724 2.134 1.435 3.214 2.123a129.172 129.172 0 007.566 4.495c.913.498 1.815 1.02 2.74 1.506 3.392 1.756 6.843 3.392 10.389 4.839l.332.154a366.905 366.905 0 00-83.718 62.667l-30.314 30.29-42.245-42.232-8.112-8.124 30.267-30.267zM235.287 332.66l-3.962-3.961-1.02-30.006a11.86 11.86 0 00-8.479-10.97l-21.075-6.262L44.332 125.113c-23.18-23.163-23.193-60.734-.03-83.914 23.164-23.18 60.735-23.193 83.915-.03l156.976 157.024 5.68 20.269a11.861 11.861 0 0011.255 8.646l29.223.403 4.471 4.471L235.287 332.66zm-16.936 321.507l-14.137 14.125a92.221 92.221 0 01-90.502 23.411l45.897-45.897c22.875-23.438 22.418-60.98-1.02-83.855-23.019-22.465-59.752-22.485-82.793-.041l-45.92 45.897a91.973 91.973 0 0123.434-90.526l14.09-14.089c41.737-41.554 109.213-41.554 150.951 0a107.008 107.008 0 0130.088 60.485v.071a105.55 105.55 0 01-30.088 90.419zm107.924-208.566a365.766 365.766 0 00-62.667 83.67c-.166-.426-.392-.818-.57-1.186a126.868 126.868 0 00-4.269-9.179c-.652-1.257-1.352-2.479-2.052-3.724a110.025 110.025 0 00-3.807-6.416c-.889-1.4-1.791-2.763-2.728-4.127a124.474 124.474 0 00-4.127-5.574c-1.032-1.352-2.052-2.716-3.154-4.033-1.685-2.004-3.487-3.937-5.302-5.858-.854-.89-1.601-1.851-2.479-2.728-.877-.878-1.956-1.744-2.917-2.645-1.838-1.732-3.677-3.463-5.598-5.076-1.411-1.186-2.882-2.277-4.341-3.404-1.684-1.292-3.38-2.573-5.111-3.783a137.767 137.767 0 00-4.649-3.072c-1.803-1.186-3.641-2.217-5.491-3.261-1.554-.878-3.096-1.767-4.685-2.574-2.194-1.126-4.447-2.135-6.713-3.131-1.126-.498-2.205-1.091-3.344-1.565a362.134 362.134 0 0083.647-62.644l36.09-36.089 50.356 50.357-36.089 36.042zm269.537 163.807L293.921 307.517l16.794-16.793 301.891 301.891-16.794 16.793zm62.774 71.408l-39.6-26.4-11.539-23.079 21.454-21.455 23.079 11.54 26.4 39.6-19.794 19.794z"/></svg><svg viewBox="0 0 315.9 32" id="logo" xmlns="http://www.w3.org/2000/svg"><path d="M17.3 17.8H5.7v9.1h13.1v4.6H0V.5h18v4.6H5.7v8h11.7v4.7zM23.7.9a45.118 45.118 0 018.2-.6c4.2 0 6.8.5 8.9 2A6.445 6.445 0 0144 8.1c0 2.9-1.8 5.5-5.2 6.7v.1a7.8 7.8 0 016.3 7.7 8.029 8.029 0 01-3 6.4c-2.2 1.9-5.8 2.9-11.5 2.9a51.7 51.7 0 01-6.9-.4zm5.6 12.3h2.9c3.9 0 6.1-1.8 6.1-4.5 0-2.9-2.2-4.2-5.8-4.2a19.055 19.055 0 00-3.2.2zm0 14.2a24.509 24.509 0 003 .1c3.6 0 6.9-1.4 6.9-5.2 0-3.6-3.1-5.1-7-5.1h-2.8v10.2zM50.2.9a46.235 46.235 0 018.6-.6c4.2 0 7.2.9 9.2 2.5a8.932 8.932 0 013 6.9 9.116 9.116 0 01-2.7 7C66 19 62.5 20 58.5 20a11.866 11.866 0 01-2.8-.2v11.7h-5.6V.9zm5.6 14.5a11.03 11.03 0 002.8.2c4.2 0 6.8-2.1 6.8-5.7 0-3.5-2.4-5.3-6.3-5.3a12.074 12.074 0 00-3.3.3zM103.2 15.7c0 10.4-6.3 16.3-14.9 16.3C79.6 32 74 25.3 74 16.2 74 6.7 80 0 88.7 0c9.1 0 14.5 6.9 14.5 15.7zm-23.2.5c0 6.3 3.2 11.3 8.6 11.3 5.5 0 8.6-5.1 8.6-11.5 0-5.8-2.9-11.4-8.6-11.4C83 4.6 80 9.8 80 16.2zM130.3 30.6a19.3 19.3 0 01-8 1.4c-9.8 0-15.8-6.2-15.8-15.6 0-10.2 7.1-16.4 16.6-16.4a17.36 17.36 0 017.5 1.4l-1.2 4.5a16.02 16.02 0 00-6.1-1.2c-6.3 0-10.9 4-10.9 11.4 0 6.8 4 11.2 10.8 11.2a15.9 15.9 0 006.2-1.2zM142.2 5.2h-8.8V.5h23.4v4.7h-8.9v26.3h-5.7zM165.7.5v10.9c0 4.9-.1 9.5-.4 13.6h.1a111.082 111.082 0 015.7-10.7L179.3.4h5.8v31h-5.2v-11a127.487 127.487 0 01.4-12.8h-.1a90.091 90.091 0 01-5.5 10.7l-7.8 13.1h-6.3V.4h5.1zM213.6.5v31h-5.7V5.2h-8.5v8.3c0 7.5-.7 14.2-5.2 17a11.155 11.155 0 01-5.5 1.5l-.7-4.6a6.119 6.119 0 003.4-1.7c2.2-2.2 2.5-7 2.5-11.9V.5zM225.7.5v11.1c1-.1 2.6-.2 3.8-.2 6.5 0 12.1 3 12.1 9.9a9.422 9.422 0 01-2.4 6.7c-2.8 2.9-7.6 3.8-12.1 3.8a52.279 52.279 0 01-7-.4V.5zm0 26.8a21.927 21.927 0 002.9.2c3.9 0 7.1-1.9 7.1-5.9 0-4.1-3.3-5.8-7.1-5.8a13.678 13.678 0 00-2.9.2z" fill="#37597f"/><path d="M272.8 31.5l-3.4-6.2c-1.3-2.4-2.2-4-3.1-5.8h-.1a59.052 59.052 0 01-2.8 5.8l-3.1 6.2h-6.5l9.2-15.7L254.2.5h6.5l3.4 6.4c1 1.9 1.7 3.5 2.6 5.2h.1c.8-1.9 1.5-3.3 2.4-5.2l3.3-6.4h6.5l-9.1 15.1 9.4 15.9zM299.5 31.5l-3.4-6.2c-1.3-2.4-2.2-4-3.1-5.8h-.1a59.052 59.052 0 01-2.8 5.8l-3.1 6.2h-6.5l9.2-15.7L280.9.5h6.5l3.4 6.4c1 1.9 1.7 3.5 2.6 5.2h.1c.8-1.9 1.5-3.3 2.4-5.2l3.3-6.4h6.5l-9.1 15.1 9.4 15.9zM315.9.5v31h-5.7V.5z" fill="#87b0dd"/></svg><svg viewBox="0 0 27 28" id="menu-close" xmlns="http://www.w3.org/2000/svg"><path fill-rule="evenodd" d="M1.833.918l24.748 24.749-1.414 1.414L.418 2.333 1.833.918z"/><path fill-rule="evenodd" d="M25.167.918L.418 25.667l1.415 1.414L26.581 2.333 25.167.918z"/></svg><svg viewBox="0 0 512 512" id="pin" xmlns="http://www.w3.org/2000/svg"><path fill="#87b0dd" d="M256 0C148.48 0 61 87.48 61 195c0 42.55 13.44 82.98 38.9 116.9l144.08 194.051c.36.47.91.65 1.31 1.07 7.2 7.71 17.59 5.77 22.72-1.07C309.5 450.591 385.55 347.2 414.79 308.2c0 0 .01-.03.02-.05l.18-.24C438.55 274.81 451 235.77 451 195 451 87.48 363.52 0 256 0zm0 300.2c-57.89 0-105.2-47.31-105.2-105.2S198.11 89.8 256 89.8 361.2 137.11 361.2 195 313.89 300.2 256 300.2z"/></svg><svg viewBox="0 0 512 512" id="placeholder" xmlns="http://www.w3.org/2000/svg"><path d="M256 0C148.48 0 61 87.48 61 195c0 42.55 13.44 82.98 38.9 116.9l144.08 194.051c.36.47.91.65 1.31 1.07 7.2 7.71 17.59 5.77 22.72-1.07C309.5 450.591 385.55 347.2 414.79 308.2c0 0 .01-.03.02-.05l.18-.24C438.55 274.81 451 235.77 451 195 451 87.48 363.52 0 256 0zm0 300.2c-57.89 0-105.2-47.31-105.2-105.2S198.11 89.8 256 89.8 361.2 137.11 361.2 195 313.89 300.2 256 300.2z"/></svg><svg viewBox="0 0 341.4 341.4" id="plus" xmlns="http://www.w3.org/2000/svg"><path d="M192 149.4V0h-42.6v149.4H0V192h149.4v149.4H192V192h149.4v-42.6z"/></svg><svg viewBox="0 0 759 759" id="pulse"><g clip-path="url(#nclip0)"><path d="M714.729 103.356H586.814c-6.135 0-11.107 4.972-11.107 11.106 0 6.134 4.972 11.106 11.107 11.106h127.915c11.564 0 20.973 9.409 20.973 20.974v349.81H23.296v-349.81c0-11.565 9.41-20.974 20.974-20.974h128.155c6.134 0 11.106-4.972 11.106-11.106 0-6.134-4.972-11.106-11.106-11.106H44.269c-23.812 0-43.185 19.374-43.185 43.186v410.877c0 23.812 19.373 43.186 43.185 43.186h253.584v2.217c0 29.624-13.726 57.809-36.88 76.111h-36.668c-22.075 0-40.033 17.96-40.033 40.034 0 22.075 17.958 40.033 40.033 40.033h310.39c22.074 0 40.032-17.959 40.032-40.033s-17.958-40.034-40.032-40.034h-36.668c-23.155-18.303-36.883-46.489-36.883-76.111v-2.217h253.585c23.812 0 43.186-19.374 43.186-43.186V146.542c.001-23.814-19.373-43.186-43.186-43.186zm-180.034 597.79c9.825 0 17.82 7.994 17.82 17.821 0 9.826-7.995 17.82-17.82 17.82h-310.39c-9.825 0-17.82-7.994-17.82-17.82 0-9.827 7.995-17.821 17.82-17.821h310.39zm-68.253-22.213H292.557c17.536-21.185 27.51-48.124 27.51-76.111v-2.217H438.93v2.217c.002 27.987 9.975 54.926 27.512 76.111zm269.262-121.514c0 11.564-9.409 20.973-20.974 20.973H44.271c-11.564 0-20.973-9.409-20.973-20.973v-38.853h712.406v38.853z"/><path d="M414.678 385.43h-.939c-5.63-.329-10.322-2.965-12.198-6.588l-87.73-171.933-55.358 76.414c-2.347 3.294-7.039 5.27-12.667 5.27h-65.681c-7.975 0-14.074-4.281-14.074-9.88 0-5.599 6.099-9.88 14.074-9.88h57.235l66.619-91.566c2.346-3.623 7.977-5.6 13.605-5.27 5.631.329 10.323 2.964 12.199 6.587l87.26 171.933 55.358-76.414c2.347-3.294 7.039-5.27 12.667-5.27h65.681c7.975 0 14.074 4.281 14.074 9.88 0 5.599-6.099 9.88-14.074 9.88h-57.235l-66.15 91.567c-2.346 3.294-7.506 5.27-12.666 5.27z"/></g><defs><clipPath id="nclip0"><path fill="#fff" d="M0 0h759v759H0z"/></clipPath></defs></svg><svg viewBox="0 0 629 629" id="refresh" xmlns="http://www.w3.org/2000/svg"><path d="M225.49 384.288c-5.737 0-10.384-4.648-10.384-10.385 0-47.715 39.701-98.802 98.803-98.802 25.804 0 47.46 10.175 63.419 23.394l-.348-13.908c-.145-5.737 4.387-10.5 10.118-10.645h.267c5.615 0 10.233 4.479 10.378 10.123l.991 39.469a10.379 10.379 0 01-4.253 11.405 10.346 10.346 0 01-8.478 1.385l-39.521-.997c-5.737-.145-10.269-4.908-10.124-10.645.145-5.731 4.966-10.275 10.645-10.118l17.576.44c-12.685-10.604-30.139-19.129-50.67-19.129-50.92 0-78.034 45.316-78.034 78.034 0 5.731-4.648 10.379-10.385 10.379zM241.623 473.865c-5.615 0-10.233-4.479-10.372-10.123l-.991-39.493a10.383 10.383 0 014.259-11.381 10.35 10.35 0 018.484-1.379l39.509.991c5.737.145 10.269 4.914 10.124 10.645-.145 5.644-4.764 10.124-10.379 10.124-.087 0-.179 0-.266-.006l-17.57-.44c12.69 10.604 30.145 19.129 50.67 19.129 50.92 0 78.034-45.316 78.034-78.034 0-5.732 4.647-10.385 10.384-10.385s10.385 4.653 10.385 10.385c0 47.715-39.701 98.802-98.803 98.802-25.81 0-47.466-10.175-63.431-23.394l.354 13.914c.139 5.731-4.387 10.5-10.124 10.645h-.267z"/><path d="M559.276 592.04H69.724C31.281 592.04 0 560.765 0 522.316V106.811c0-38.443 31.28-69.724 69.724-69.724h489.552c38.443 0 69.724 31.281 69.724 69.724v415.505c0 38.449-31.281 69.724-69.724 69.724zM69.724 57.856c-26.993 0-48.955 21.963-48.955 48.955v415.505c0 26.993 21.962 48.955 48.955 48.955h489.552c26.993 0 48.955-21.962 48.955-48.955V106.811c0-26.992-21.962-48.955-48.955-48.955H69.724z"/><path d="M618.616 203.372H10.384C4.647 203.372 0 198.724 0 192.987c0-5.731 4.647-10.384 10.384-10.384h608.232c5.737 0 10.384 4.653 10.384 10.384 0 5.737-4.647 10.385-10.384 10.385zM177.428 153.68c-18.115 0-32.863-14.748-32.863-32.862 0-18.121 14.748-32.863 32.863-32.863 18.12 0 32.863 14.742 32.863 32.863 0 18.114-14.743 32.862-32.863 32.862zm0-44.956c-6.664 0-12.094 5.424-12.094 12.094 0 6.669 5.43 12.093 12.094 12.093 6.67 0 12.094-5.424 12.094-12.093 0-6.67-5.424-12.094-12.094-12.094zM76.457 153.362c-18.12 0-32.862-14.743-32.862-32.863 0-18.121 14.742-32.863 32.862-32.863 18.121 0 32.863 14.742 32.863 32.863 0 18.12-14.742 32.863-32.862 32.863zm0-44.957c-6.664 0-12.093 5.43-12.093 12.094 0 6.67 5.43 12.094 12.093 12.094 6.67 0 12.094-5.424 12.094-12.094 0-6.664-5.424-12.094-12.094-12.094zM278.398 153.993c-18.115 0-32.857-14.742-32.857-32.863 0-18.114 14.742-32.857 32.857-32.857 18.121 0 32.863 14.743 32.863 32.857 0 18.121-14.742 32.863-32.863 32.863zm0-44.956c-6.664 0-12.088 5.424-12.088 12.093 0 6.67 5.424 12.094 12.088 12.094 6.67 0 12.094-5.424 12.094-12.094 0-6.669-5.424-12.093-12.094-12.093z"/></svg><svg viewBox="0 0 427.333 427.333" id="reload" xmlns="http://www.w3.org/2000/svg"><path d="M391.386 213.333c-.118 98.096-79.611 177.589-177.707 177.707-98.027.159-177.622-79.179-177.78-177.206a177.493 177.493 0 0122.687-87.114l-25.813-25.813C-29.671 200.819.704 332.435 100.616 394.879s231.528 32.069 293.972-67.843a213.334 213.334 0 0032.425-113.702h-35.627zM363.013 0v74.027C359.386 70.4 355.76 54.4 351.92 51.2 265.403-22.306 136.475-15.179 58.586 67.413L85.68 94.72c65.057-70.627 175.051-75.141 245.678-10.084a173.888 173.888 0 0120.136 22.031h-95.147v42.667H405.68V0h-42.667z"/></svg><svg viewBox="0 0 512 512" id="search" xmlns="http://www.w3.org/2000/svg"><path d="M495 466.2L377.2 348.4c29.2-35.6 46.8-81.2 46.8-130.9C424 103.5 331.5 11 217.5 11 103.4 11 11 103.5 11 217.5S103.4 424 217.5 424c49.7 0 95.2-17.5 130.8-46.7L466.1 495c8 8 20.9 8 28.9 0 8-7.9 8-20.9 0-28.8zm-277.5-83.3C126.2 382.9 52 308.7 52 217.5S126.2 52 217.5 52C308.7 52 383 126.3 383 217.5s-74.3 165.4-165.5 165.4z"/></svg><svg viewBox="0 0 759 759" id="settings" xmlns="http://www.w3.org/2000/svg"><g clip-path="url(#rclip0)"><path d="M385.874 311.521c49.278-3.115 88.787-42.623 91.902-91.9 3.738-59.178-45.07-108.413-104.652-104.652-49.277 3.113-88.787 42.621-91.901 91.899-3.754 59.409 45.331 108.413 104.651 104.653zm-82.481-103.253c2.41-38.141 32.991-68.722 71.132-71.132 46.017-2.894 83.991 35.031 81.081 81.082-2.41 38.142-32.991 68.723-71.132 71.133-45.972 2.895-83.993-34.993-81.081-81.083z"/><path d="M209.853 160.924h-.243c-23.815 0-43.355 18.565-43.355 42.549v18.493c0 24.04 19.557 43.6 43.598 43.6 16.025 0 24.055 19.277 12.691 30.641-16.998 16.999-16.998 44.66 0 61.659l12.334 12.333c17.04 17.038 44.618 17.042 61.658 0 11.335-11.333 30.642-3.375 30.642 12.693 0 24.04 19.557 43.598 43.598 43.598h17.443c24.041 0 43.6-19.559 43.6-43.598 0-16.049 19.3-24.036 30.642-12.693 17 16.999 44.658 16.999 61.658 0l12.334-12.333c16.997-16.999 16.997-44.66 0-61.659-11.373-11.37-3.321-30.641 12.692-30.641h.242c23.868 0 43.356-18.609 43.356-42.547v-19.545c0-23.957-19.508-42.548-43.355-42.548h-.241c-16.04 0-24.051-19.289-12.694-30.642 16.997-16.999 16.997-44.658-.002-61.658l-13.076-13.077c-16.849-16.853-43.867-16.428-60.86.688-11.333 11.42-30.695 3.44-30.695-12.639C431.82 19.558 412.263 0 388.221 0h-17.444c-24.04 0-43.598 19.56-43.598 43.598 0 16.025-19.276 24.054-30.641 12.691-17.001-16.999-44.658-16.999-61.659 0l-12.334 12.334c-16.997 16.999-16.997 44.659.002 61.658 11.391 11.393 3.282 30.643-12.694 30.643zm28.4-46.349c-8.338-8.337-8.338-21.906 0-30.245l12.334-12.333c8.356-8.357 21.883-8.358 30.241 0 25.29 25.29 68.562 7.427 68.562-28.399 0-11.793 9.595-21.385 21.386-21.385h17.443c11.793 0 21.386 9.594 21.386 21.385 0 35.844 43.377 53.767 68.67 28.288 8.368-8.428 21.291-8.736 29.392-.632l13.076 13.076c8.339 8.34 8.339 21.906.002 30.245-25.366 25.363-7.307 68.75 28.554 68.56h.086c11.735 0 21.144 8.806 21.144 20.336v19.545c0 11.546-9.427 20.334-21.144 20.334h-.241c-35.777 0-53.726 43.233-28.401 68.562 8.339 8.339 8.339 21.906 0 30.244L508.41 354.49c-8.358 8.358-21.882 8.358-30.243-.001-25.295-25.292-68.561-7.421-68.561 28.4 0 11.792-9.594 21.385-21.385 21.385h-17.444c-11.792 0-21.385-9.594-21.385-21.387 0-35.768-43.228-53.732-68.562-28.398-8.357 8.356-21.884 8.357-30.242 0l-12.333-12.334c-8.339-8.339-8.339-21.906 0-30.245 25.299-25.3 7.415-68.562-28.401-68.562-11.792 0-21.385-9.594-21.385-21.385V203.47c0-11.548 9.428-20.336 21.144-20.336h.241c35.77.001 53.729-43.227 28.399-68.559z"/><path d="M714.729 103.356H586.814c-6.135 0-11.107 4.972-11.107 11.106 0 6.135 4.972 11.107 11.107 11.107h127.915c11.564 0 20.973 9.408 20.973 20.973v349.81H23.296v-349.81c0-11.565 9.409-20.973 20.973-20.973h128.156c6.134 0 11.106-4.972 11.106-11.107 0-6.134-4.972-11.106-11.106-11.106H44.269c-23.812 0-43.185 19.374-43.185 43.186v410.877c0 23.812 19.373 43.186 43.185 43.186h253.584v2.217c0 29.624-13.726 57.809-36.88 76.111h-36.668c-22.075 0-40.033 17.959-40.033 40.034S202.23 759 224.305 759h310.39c22.074 0 40.032-17.96 40.032-40.033 0-22.075-17.958-40.034-40.032-40.034h-36.668c-23.156-18.304-36.883-46.489-36.883-76.111v-2.217h253.585c23.812 0 43.186-19.374 43.186-43.186V146.542c.001-23.814-19.373-43.186-43.186-43.186zm-180.034 597.79c9.825 0 17.82 7.994 17.82 17.821 0 9.826-7.995 17.82-17.82 17.82h-310.39c-9.825 0-17.82-7.994-17.82-17.82 0-9.827 7.995-17.821 17.82-17.821h310.39zm-68.253-22.213H292.557c17.536-21.185 27.51-48.124 27.51-76.111v-2.217H438.93v2.217c.002 27.987 9.975 54.926 27.512 76.111zm269.262-121.514c0 11.564-9.409 20.973-20.974 20.973H44.27c-11.564 0-20.972-9.409-20.972-20.973v-38.853h712.406v38.853z"/></g><defs><clipPath id="rclip0"><path fill="#fff" d="M0 0h759v759H0z"/></clipPath></defs></svg><svg viewBox="0 0 759 759" id="support-services" xmlns="http://www.w3.org/2000/svg"><path d="M750.543 380.557l-85.241-84.47c-11.323-11.22-26.337-17.399-42.277-17.399H515.514V129.745c0-19.972-16.248-36.219-36.219-36.219H36.218C16.249 93.528 0 109.775 0 129.745v428.537c0 17.674 14.378 32.052 32.053 32.052h37.76c4.92 42.239 40.899 75.139 84.437 75.139s79.518-32.898 84.436-75.139h297.196c4.92 42.239 40.899 75.139 84.436 75.139 43.539 0 79.517-32.898 84.437-75.139h25.68c15.751 0 28.564-12.814 28.564-28.564V400.844c.001-7.566-3.082-14.961-8.456-20.287zm-127.518-79.634c10.039 0 19.494 3.891 26.624 10.958l85.241 84.47a6.367 6.367 0 011.874 4.493v110.147h-10.362c-15.461 0-29.046 8.153-36.704 20.379-15.418-21.734-40.76-35.959-69.377-35.959-42.694 0-78.127 31.631-84.125 72.687h-20.681V300.923h107.51zM216.158 522.242h277.121V568.1H238.375c-2.572-17.609-10.564-33.469-22.217-45.858zM36.218 115.764h443.077c7.71 0 13.982 6.272 13.982 13.982v370.26H181.766a84.628 84.628 0 00-27.516-4.595 84.633 84.633 0 00-27.516 4.595H22.236V129.745c0-7.709 6.273-13.981 13.982-13.981zM22.237 558.283v-36.041h70.105c-11.653 12.389-19.644 28.249-22.216 45.858H32.052c-5.414 0-9.817-4.405-9.817-9.817zm132.014 84.953c-34.624 0-62.795-28.169-62.795-62.794 0-.41.024-.815.031-1.223v-.001c.658-34.06 28.55-61.57 62.764-61.57 34.625 0 62.794 28.169 62.794 62.794s-28.169 62.794-62.794 62.794zm466.069 0c-34.624 0-62.793-28.169-62.793-62.794s28.169-62.794 62.793-62.794c34.215 0 62.107 27.51 62.765 61.57v.001c.683 35.466-27.988 64.017-62.765 64.017zM730.437 568.1h-25.086v-13.822c0-11.606 9.443-21.049 21.051-21.049h10.362v28.544a6.335 6.335 0 01-6.327 6.327z"/><path d="M177.289 195.7c23.558-16.875 51.383-25.795 80.468-25.795 76.28 0 138.337 62.057 138.337 138.336 0 29.22-8.997 57.154-26.018 80.775-3.589 4.982-2.461 11.93 2.522 15.521 4.972 3.584 11.924 2.469 15.519-2.521 19.765-27.432 30.213-59.86 30.213-93.775 0-88.54-72.032-160.573-160.573-160.573-33.757 0-66.061 10.358-93.417 29.957-4.992 3.576-6.141 10.521-2.563 15.514 3.575 4.99 10.52 6.139 15.512 2.561z"/><path d="M257.758 468.816c32.431 0 63.685-9.625 90.382-27.834 5.072-3.46 6.38-10.379 2.92-15.451-3.46-5.073-10.377-6.382-15.45-2.921-22.989 15.681-49.909 23.97-77.852 23.97-20.948 0-40.819-4.689-58.63-13.059l6.001-6.001c14.768-14.768 34.331-23.476 55.162-24.521l.811-.044a92.805 92.805 0 0060.51-27.083c22.561-22.562 31.922-54.652 25.041-85.845-3.441-15.6-22.87-21.331-34.237-9.966l-40.319 40.318a7.358 7.358 0 01-10.414-.001l-16.065-16.064c-2.871-2.872-2.871-7.545 0-10.415l40.318-40.317c11.316-11.314 5.7-30.783-9.964-34.237-31.193-6.881-63.286 2.48-85.845 25.041a92.845 92.845 0 00-27.086 60.541l-.029.538c-1.105 21.012-9.817 40.686-24.536 55.405l-6 6.001c-8.37-17.811-13.059-37.681-13.059-58.63 0-27.722 8.168-54.465 23.619-77.338 3.438-5.087 2.1-11.998-2.988-15.436-5.089-3.436-12-2.099-15.438 2.99-17.945 26.562-27.43 57.608-27.43 89.784.004 88.741 72.039 160.575 160.578 160.575zm-103.555-92.223c18.609-18.609 29.625-43.454 31.018-70l.026-.454a70.617 70.617 0 0120.604-46.032c16.326-16.324 39.214-23.57 61.841-19.729l-37.798 37.795c-11.54 11.541-11.54 30.32 0 41.863l16.067 16.065c11.569 11.568 30.29 11.568 41.86 0l37.798-37.798c3.835 22.626-3.405 45.517-19.731 61.844a70.614 70.614 0 01-46.046 20.604l-.744.04c-26.269 1.32-51.021 12.328-69.695 31.002l-10.228 10.23a139.487 139.487 0 01-35.203-35.203l10.231-10.227z"/></svg><svg viewBox="0 0 759 759" id="wrench" xmlns="http://www.w3.org/2000/svg"><path d="M723.422 438.797a11.86 11.86 0 0011.859-11.859v-94.876a11.86 11.86 0 00-11.859-11.859h-65.618a282.948 282.948 0 00-39.575-95.551l46.347-46.453a11.863 11.863 0 000-16.757L597.57 94.436a11.859 11.859 0 00-16.757 0l-46.465 46.335a282.928 282.928 0 00-95.551-39.575V35.578a11.86 11.86 0 00-11.859-11.86h-94.876a11.86 11.86 0 00-11.859 11.86v65.618a282.928 282.928 0 00-95.551 39.575l-46.453-46.347a11.861 11.861 0 00-16.757 0L94.436 161.43a11.859 11.859 0 000 16.757l46.347 46.453a282.927 282.927 0 00-39.587 95.563H35.578a11.86 11.86 0 00-11.86 11.859v94.876a11.86 11.86 0 0011.86 11.859h65.618a282.928 282.928 0 0039.575 95.551l-46.347 46.453a11.861 11.861 0 000 16.757l67.006 67.006a11.86 11.86 0 0016.757 0l46.453-46.347a282.927 282.927 0 0095.563 39.587v65.618a11.86 11.86 0 0011.859 11.859h94.876a11.86 11.86 0 0011.859-11.859v-65.618a283.18 283.18 0 0095.515-39.634l96.761 96.761a59.299 59.299 0 0083.858-83.858l-96.761-96.761a283.18 283.18 0 0039.634-95.515h65.618zm-25.261 259.364a35.582 35.582 0 01-25.159 10.423 35.58 35.58 0 01-25.16-10.423L420.759 471.09a59.05 59.05 0 00-42.006-17.267 61.838 61.838 0 00-7.4.439 94.78 94.78 0 01-45.448-5.687 94.785 94.785 0 01-58.231-67.16 94.789 94.789 0 01.81-45.795l52.312 52.324a11.858 11.858 0 008.385 3.475H379.5a11.86 11.86 0 0011.859-11.86v-50.378c0-3.146-1.251-6.161-3.474-8.385l-52.265-52.312a94.821 94.821 0 0145.779-.79 94.8 94.8 0 0172.815 103.659 59.378 59.378 0 0016.829 49.406l227.118 227.083a35.587 35.587 0 0110.423 25.16 35.582 35.582 0 01-10.423 25.159zM487.859 404.049a35.761 35.761 0 01-10.033-29.826 118.51 118.51 0 00-107.252-132.238 118.524 118.524 0 00-61.566 11.153 11.87 11.87 0 00-6.56 8.701 11.86 11.86 0 003.31 10.381l61.883 61.87v33.551H334.09l-61.87-61.883a11.86 11.86 0 00-19.082 3.25 118.506 118.506 0 0010.585 120.199 118.493 118.493 0 00110.44 48.607 35.765 35.765 0 0129.827 10.045l61.004 60.993a189.873 189.873 0 01-130.416 15.036A189.875 189.875 0 01190.11 364.32a189.876 189.876 0 0155.013-119.197A189.876 189.876 0 01364.32 190.11a189.875 189.875 0 01199.568 144.468 189.873 189.873 0 01-15.036 130.416l-60.993-60.945zm148.456 20.944a258.54 258.54 0 01-35.27 92.254l-34.677-34.677a213.714 213.714 0 00-58.659-274.063A213.72 213.72 0 10334.52 588.295a213.722 213.722 0 00147.991-21.868l34.676 34.677a258.526 258.526 0 01-92.254 35.27 11.854 11.854 0 00-7.041 4.019 11.867 11.867 0 00-2.814 7.603v63.566h-71.156v-63.566a11.87 11.87 0 00-2.794-7.64 11.866 11.866 0 00-7.061-4.041 258.428 258.428 0 01-103.995-43.097 11.861 11.861 0 00-15.204 1.316l-44.971 44.888-50.26-50.26 44.888-44.971a11.87 11.87 0 003.429-7.362 11.866 11.866 0 00-2.112-7.842 258.39 258.39 0 01-43.097-104.054 11.861 11.861 0 00-11.741-9.855H47.437v-71.156h63.567a11.87 11.87 0 007.64-2.794 11.866 11.866 0 004.041-7.061 258.414 258.414 0 0143.097-103.995 11.861 11.861 0 00-1.316-15.204l-44.888-44.971 50.26-50.26 44.971 44.888a11.87 11.87 0 007.362 3.429c2.781.24 5.557-.507 7.842-2.112a258.39 258.39 0 01104.054-43.097 11.861 11.861 0 009.855-11.741V47.437h71.156v63.567a11.86 11.86 0 009.855 11.681 258.419 258.419 0 01104.054 43.097 11.861 11.861 0 0015.204-1.316l44.971-44.888 50.26 50.26-44.888 44.971a11.861 11.861 0 00-1.316 15.204 258.404 258.404 0 0143.097 104.054 11.866 11.866 0 004.041 7.061 11.87 11.87 0 007.64 2.794h63.566v71.156h-63.566a11.86 11.86 0 00-11.681 9.855v.06z"/><path d="M622.688 639.457a11.858 11.858 0 0020.098-8.427 11.862 11.862 0 00-3.328-8.342l-142.55-142.561a11.866 11.866 0 00-16.781 16.781l142.561 142.549z"/></svg></svg>